<?xml version="1.0" encoding="iso-8859-1"?>
<!-- Generator: Adobe Illustrator 19.0.0, SVG Export Plug-In . SVG Version: 6.00 Build 0)  -->
<svg version="1.1" id="Capa_1" xmlns="http://www.w3.org/2000/svg" xmlns:xlink="http://www.w3.org/1999/xlink" x="0px" y="0px"
	 viewBox="0 0 330 330" style="enable-background:new 0 0 330 330;" xml:space="preserve">
<g id="XMLID_26_">
	<path fill="#D6D6D6" id="XMLID_27_" d="M85,140c-13.785,0-25,11.215-25,25s11.215,25,25,25s25-11.215,25-25S98.785,140,85,140z"/>
	<path fill="#D6D6D6" id="XMLID_29_" d="M165,140c-13.785,0-25,11.215-25,25s11.215,25,25,25s25-11.215,25-25S178.785,140,165,140z"/>
	<path fill="#D6D6D6" id="XMLID_31_" d="M245,140c-13.785,0-25,11.215-25,25s11.215,25,25,25s25-11.215,25-25S258.785,140,245,140z"/>
	<path fill="#D6D6D6" id="XMLID_85_" d="M165,0C74.019,0,0,74.019,0,165s74.019,165,165,165s165-74.019,165-165S255.981,0,165,0z M165,300
		c-74.439,0-135-60.561-135-135S90.561,30,165,30s135,60.561,135,135S239.439,300,165,300z"/>
</g>
<g>
</g>
<g>
</g>
<g>
</g>
<g>
</g>
<g>
</g>
<g>
</g>
<g>
</g>
<g>
</g>
<g>
</g>
<g>
</g>
<g>
</g>
<g>
</g>
<g>
</g>
<g>
</g>
<g>
</g>
</svg>
